<?xml version="1.0" standalone="no"?>
<!DOCTYPE svg PUBLIC "-//W3C//DTD SVG 20010904//EN"
 "http://www.w3.org/TR/2001/REC-SVG-20010904/DTD/svg10.dtd">
<svg version="1.0" xmlns="http://www.w3.org/2000/svg"
 width="100.000000pt" height="100.000000pt" viewBox="0 0 100.000000 100.000000"
 preserveAspectRatio="xMidYMid meet">
<metadata>
Created by potrace 1.11, written by Peter Selinger 2001-2013
</metadata>
<g transform="translate(0.000000,100.000000) scale(0.100000,-0.100000)"
fill="#000000" stroke="none">
<path d="M460 960 c0 -4 -16 -6 -35 -5 -19 1 -35 -1 -35 -5 0 -6 -8 -8 -50
-12 -11 -1 -20 -7 -20 -12 0 -5 -3 -7 -6 -3 -4 3 -13 -1 -21 -9 -9 -8 -22 -13
-29 -10 -8 3 -14 -1 -14 -11 0 -9 -3 -13 -7 -10 -3 4 -20 -8 -36 -26 -17 -17
-26 -25 -22 -17 5 8 -4 2 -18 -13 -15 -15 -27 -31 -27 -34 0 -3 -9 -14 -21
-24 -11 -9 -20 -20 -20 -23 3 -20 0 -26 -8 -21 -6 3 -8 -4 -6 -15 2 -11 0 -20
-6 -20 -5 0 -9 -9 -9 -21 0 -11 -5 -17 -10 -14 -6 4 -10 3 -9 -2 5 -28 -2 -63
-12 -57 -8 5 -8 1 0 -13 6 -11 8 -23 4 -27 -9 -9 -10 -96 -1 -102 13 -8 9 -26
-4 -18 -11 6 -11 4 0 -7 6 -7 12 -20 12 -29 0 -9 8 -32 19 -53 10 -20 14 -34
9 -30 -11 6 27 -51 50 -76 7 -7 11 -20 8 -28 -3 -8 -1 -11 5 -8 5 4 25 -9 44
-29 18 -20 39 -36 45 -36 6 0 8 -5 4 -12 -5 -8 -2 -9 9 -5 10 3 17 2 17 -3 0
-6 7 -10 15 -10 8 0 15 -4 15 -10 0 -5 3 -9 8 -9 21 4 42 -2 38 -10 -4 -5 2
-8 11 -6 10 1 28 -4 40 -11 15 -9 23 -10 23 -4 0 6 5 8 12 4 17 -11 111 -13
131 -2 11 6 17 5 17 -3 0 -7 4 -8 13 -2 6 5 30 15 52 22 22 8 43 19 47 25 5 7
8 6 8 -4 0 -10 5 -7 16 8 8 12 20 20 25 17 5 -4 9 -1 9 4 0 6 6 11 14 11 8 0
17 7 20 16 3 8 10 12 16 9 5 -3 10 -1 10 5 0 6 11 21 25 34 14 13 25 28 25 34
0 6 6 15 14 19 15 9 55 85 62 118 2 11 7 31 10 45 7 29 9 136 3 165 -3 11 -9
26 -13 34 -7 11 -6 12 5 6 11 -7 12 -6 2 7 -7 8 -10 18 -6 21 3 4 1 7 -5 7 -7
0 -12 9 -12 20 0 11 -4 20 -10 20 -5 0 -10 7 -10 15 0 8 -5 15 -11 15 -5 0 -8
4 -5 9 3 5 -8 23 -24 41 -16 18 -27 37 -23 44 3 6 3 8 -2 4 -4 -4 -16 2 -26
14 -11 11 -19 18 -19 14 0 -4 -11 4 -25 18 -14 14 -37 29 -50 32 -14 3 -25 10
-25 14 0 4 -7 11 -16 14 -8 3 -12 2 -9 -4 3 -6 -1 -7 -9 -4 -9 3 -16 9 -16 13
0 4 -10 8 -22 9 -38 4 -52 7 -65 15 -8 5 -13 3 -13 -3 0 -6 -5 -8 -12 -4 -15
9 -58 12 -58 4z"/>
</g>
</svg>
